<svg width="60" height="58" viewBox="0 0 60 58" fill="none" xmlns="http://www.w3.org/2000/svg">
<path d="M37.8133 18.5641C38.4543 18.3666 39.1419 18.3856 39.7712 18.6184C40.0084 18.7162 40.2419 18.8285 40.4898 18.9517C40.7377 19.0748 40.9389 19.2125 41.1616 19.361C41.6105 19.6673 42.0259 20.0206 42.4011 20.4151C43.2081 21.2848 43.8142 22.3239 44.1758 23.4578C44.5874 24.7574 44.7209 26.1303 44.5674 27.4858C44.3893 29.0152 43.9092 30.4932 43.1555 31.8325C42.6837 32.6565 41.9567 33.3017 41.0862 33.669C40.8856 33.7495 40.6789 33.8137 40.4682 33.861C40.27 33.9051 40.0677 33.9282 39.8647 33.9298C39.4913 33.9416 39.1209 33.8595 38.7869 33.6908C38.5079 33.5417 38.2738 33.3199 38.1088 33.0484C37.9439 32.777 37.8542 32.4659 37.8492 32.1477C37.8297 31.4518 38.0366 30.7686 38.4384 30.2025C38.9407 29.4375 39.2977 28.5851 39.491 27.6886C39.671 26.8549 39.6905 25.9941 39.5485 25.153C39.5162 24.9538 39.4659 24.7509 39.4156 24.559C39.3904 24.4648 39.3617 24.3706 39.333 24.2764C39.3042 24.1823 39.2647 24.0844 39.2288 23.9939C39.1617 23.8112 39.085 23.6322 38.9988 23.4578C38.909 23.2839 38.8156 23.1173 38.7186 22.9543C38.3224 22.3203 37.8204 21.7603 37.2348 21.2989C36.8354 21.0124 36.5241 20.6182 36.3367 20.1615C36.2743 19.9906 36.2668 19.8042 36.3152 19.6287C36.3635 19.4532 36.4653 19.2975 36.6061 19.1835C36.7609 19.0356 36.9379 18.9133 37.1307 18.8213C37.3486 18.7116 37.5774 18.6254 37.8133 18.5641Z" fill="#F1F1F1"/>
<path d="M33.6493 25.566C34.1411 26.0254 34.4694 26.6351 34.5834 27.3011C34.6194 27.5593 34.641 27.8193 34.6481 28.0799C34.6624 28.3441 34.6624 28.609 34.6481 28.8732C34.6265 29.1376 34.5942 29.4057 34.5475 29.6737C34.4994 29.9452 34.4358 30.2137 34.3571 30.4779C34.0166 31.6186 33.4274 32.6681 32.6326 33.5496C31.7216 34.5545 30.6115 35.3554 29.3741 35.9004C27.9703 36.5213 26.4556 36.8467 24.9228 36.8567C23.974 36.8591 23.0509 36.5459 22.2966 35.9656C21.9736 35.7361 21.7029 35.4396 21.5028 35.096C21.3027 34.7524 21.1777 34.3696 21.1362 33.9734C21.126 33.6553 21.2006 33.3403 21.3523 33.0613C21.5039 32.7822 21.7271 32.5493 21.9984 32.3868C22.2756 32.2136 22.5808 32.091 22.9002 32.0246C23.2536 31.9447 23.6168 31.9178 23.978 31.9449C24.8866 32.0065 25.7985 31.8934 26.6652 31.6116C27.074 31.4785 27.4697 31.3075 27.8472 31.1009C28.034 30.9922 28.2065 30.8799 28.3825 30.764C28.5519 30.6525 28.715 30.5315 28.8711 30.4018C29.1767 30.1445 29.457 29.8582 29.7082 29.5469C29.8303 29.3948 29.9453 29.2318 30.0675 29.0724C30.1896 28.913 30.2722 28.7537 30.3621 28.5798C30.7089 27.917 30.9398 27.199 31.0447 26.4571C31.0808 26.1826 31.1508 25.9137 31.2531 25.6566C31.2961 25.5482 31.3466 25.4429 31.4039 25.3415C31.4291 25.298 31.4578 25.2545 31.4866 25.2147L31.5764 25.0988C31.6938 24.9617 31.8503 24.8645 32.0246 24.8204C32.1988 24.7763 32.3823 24.7875 32.55 24.8524C32.6478 24.881 32.7428 24.9186 32.8338 24.9647C32.9333 25.0121 33.0294 25.0666 33.1212 25.1277C33.311 25.2561 33.4879 25.4029 33.6493 25.566Z" fill="white"/>
<path d="M25.5624 25.4319C25.4102 26.0899 25.0495 26.6799 24.5349 27.1126C23.6922 27.769 22.7213 28.2382 21.686 28.4891C20.5359 28.7585 19.341 28.7684 18.1867 28.5181C16.8656 28.2276 15.6204 27.6586 14.533 26.8482C13.2987 25.9288 12.2633 24.7653 11.4901 23.4288C11.0118 22.6024 10.8209 21.6386 10.9476 20.6903C10.9476 20.5817 10.9799 20.473 11.0014 20.368C11.023 20.2629 11.0589 20.1579 11.0913 20.0564C11.1555 19.8639 11.2361 19.6773 11.332 19.4986C11.5116 19.1728 11.7668 18.8957 12.0757 18.6908C12.344 18.5227 12.6521 18.43 12.9679 18.4224C13.2838 18.4147 13.5959 18.4924 13.872 18.6474C14.1621 18.7963 14.4227 18.9977 14.6408 19.2414C14.7623 19.3681 14.8729 19.5051 14.9713 19.6507C15.071 19.8049 15.1621 19.9646 15.2444 20.1289C15.6441 20.9506 16.1952 21.6881 16.8682 22.3023C17.4975 22.8753 18.229 23.3228 19.0238 23.6208C19.396 23.7664 19.7809 23.8767 20.1735 23.9504C20.5534 24.0123 20.9385 24.0365 21.3231 24.0228C21.6966 24.0091 22.0681 23.9618 22.4332 23.8816C22.7924 23.8008 23.1445 23.6905 23.4859 23.552C23.7406 23.4468 24.0073 23.3738 24.2798 23.3346C24.3988 23.318 24.519 23.3107 24.6391 23.3129C24.7381 23.314 24.8368 23.3249 24.9337 23.3455C25.1128 23.377 25.278 23.4635 25.4065 23.5932C25.5351 23.7228 25.6209 23.8893 25.6522 24.0699C25.7303 24.5247 25.6995 24.9916 25.5624 25.4319Z" fill="#F1F1F1"/>
<path d="M21.6357 18.2926C20.9951 18.4936 20.3064 18.4745 19.6777 18.2382C19.4406 18.1404 19.2071 18.0282 18.9592 17.905C18.7284 17.7803 18.5042 17.6437 18.2874 17.4957C17.8385 17.1894 17.423 16.8361 17.0479 16.4416C16.2416 15.5727 15.6356 14.5349 15.2732 13.4025C14.8623 12.1015 14.7277 10.7278 14.878 9.37089C15.0567 7.84162 15.5368 6.36377 16.2899 5.02415C16.7633 4.1992 17.4913 3.55297 18.3628 3.18402C18.5629 3.1031 18.7697 3.04008 18.9808 2.99568C19.1774 2.94862 19.3787 2.92431 19.5807 2.92322C19.9544 2.91285 20.3247 2.99624 20.6585 3.16591C20.9382 3.31407 21.173 3.53568 21.3381 3.80731C21.5031 4.07893 21.5923 4.39048 21.5962 4.70901C21.6134 5.40455 21.4067 6.08699 21.007 6.65417C20.5012 7.41595 20.144 8.26787 19.9544 9.16442C19.7751 9.99811 19.7543 10.8585 19.8933 11.7C19.9292 11.9029 19.9795 12.1021 20.0298 12.2941C20.055 12.3919 20.0837 12.486 20.1125 12.5802C20.1412 12.6744 20.1771 12.7686 20.213 12.8592C20.2849 13.0439 20.3603 13.2214 20.4466 13.3952C20.5328 13.5691 20.6298 13.7394 20.7268 13.8987C21.1218 14.5336 21.624 15.0938 22.2105 15.5541C22.6104 15.8418 22.9217 16.2372 23.1087 16.6951C23.1707 16.8664 23.1776 17.053 23.1286 17.2286C23.0796 17.4041 22.9771 17.5596 22.8357 17.6732C22.6806 17.8191 22.5051 17.9411 22.3147 18.0354C22.0981 18.1452 21.8705 18.2314 21.6357 18.2926Z" fill="white"/>
<path d="M25.7958 11.2943C25.3061 10.8333 24.9782 10.2244 24.8617 9.55922C24.8258 9.29841 24.8078 9.04484 24.797 8.78042C24.7862 8.51599 24.797 8.24794 24.797 7.98351C24.797 7.71908 24.8509 7.45467 24.8976 7.183C24.9454 6.9126 25.0089 6.64528 25.088 6.38247C25.4292 5.24096 26.0183 4.19042 26.8125 3.30715C27.7214 2.30149 28.8306 1.50043 30.0674 0.956289C31.4724 0.335446 32.9883 0.010048 34.5223 0C35.4694 0.00129377 36.3902 0.314165 37.1449 0.89109C37.4684 1.12013 37.7395 1.41649 37.9396 1.76018C38.1398 2.10388 38.2645 2.4869 38.3053 2.88335C38.3165 3.20164 38.2428 3.51711 38.0917 3.79683C37.9407 4.07656 37.7179 4.31025 37.4467 4.47351C37.1675 4.64247 36.8629 4.76479 36.545 4.83574C36.1913 4.91402 35.8282 4.93966 35.4672 4.91182C34.5598 4.8518 33.6493 4.96485 32.7835 5.24506C32.3731 5.37854 31.9762 5.55078 31.5979 5.75944C31.4147 5.86449 31.2386 5.97677 31.0662 6.09269C30.8968 6.20425 30.7337 6.32518 30.5776 6.45492C30.2712 6.71123 29.9908 6.99758 29.7405 7.30977C29.6183 7.46191 29.5034 7.62491 29.3812 7.78429C29.2741 7.94416 29.1758 8.10982 29.0866 8.28054C28.7375 8.94231 28.5065 9.66078 28.404 10.4032C28.3669 10.6776 28.297 10.9464 28.1957 11.2037C28.1533 11.3113 28.1029 11.4154 28.0448 11.5152C28.019 11.5595 27.9901 11.6018 27.9585 11.642C27.9306 11.6822 27.9006 11.7209 27.8687 11.7579C27.7523 11.8953 27.5966 11.9931 27.423 12.0378C27.2493 12.0826 27.0662 12.0721 26.8987 12.0079C26.8008 11.978 26.7058 11.9392 26.6149 11.892C26.5161 11.8445 26.4202 11.7912 26.3275 11.7326C26.138 11.6023 25.9601 11.4557 25.7958 11.2943Z" fill="#F1F1F1"/>
<path d="M33.883 11.4282C34.0342 10.7698 34.3951 10.1795 34.9105 9.74744C35.758 9.0888 36.7356 8.62071 37.7774 8.37461C38.927 8.10209 40.1223 8.09095 41.2766 8.342C42.5984 8.62978 43.8449 9.19642 44.9339 10.0046C46.1675 10.9264 47.2027 12.0909 47.9769 13.4277C48.4551 14.2528 48.6461 15.2154 48.5194 16.1625C48.5061 16.2722 48.4869 16.381 48.4619 16.4885C48.4368 16.5936 48.408 16.6986 48.3757 16.7964C48.3111 16.9906 48.2293 17.1785 48.1314 17.3579C47.9531 17.6825 47.6991 17.9585 47.3913 18.162C47.1233 18.3307 46.8154 18.424 46.4995 18.4323C46.1837 18.4406 45.8714 18.3635 45.595 18.2091C45.3055 18.0576 45.0451 17.8552 44.8262 17.6114C44.7054 17.4827 44.5949 17.3446 44.4956 17.1985C44.3948 17.0444 44.3024 16.8847 44.219 16.7203C43.8208 15.8986 43.2709 15.161 42.5987 14.547C41.9702 13.9737 41.2385 13.5273 40.4431 13.2321C39.7047 12.9625 38.9215 12.8395 38.1367 12.8699C37.7632 12.8836 37.3917 12.9309 37.0265 13.0111C36.6674 13.0907 36.3154 13.1998 35.9739 13.3371C35.7179 13.4423 35.45 13.5153 35.1763 13.5545C35.0572 13.5706 34.9372 13.5791 34.8171 13.5798C34.717 13.5767 34.6173 13.5658 34.5189 13.5472C34.3393 13.5167 34.1737 13.4305 34.0449 13.3007C33.9161 13.1709 33.8307 13.0038 33.8004 12.8228C33.7147 12.3581 33.743 11.8793 33.883 11.4282Z" fill="white"/>
</svg>
