<svg width="165" height="161" viewBox="0 0 165 161" fill="none" xmlns="http://www.w3.org/2000/svg">
<path d="M104.965 51.5315C106.744 50.9832 108.653 51.0362 110.4 51.6824C111.058 51.9539 111.706 52.2656 112.394 52.6074C113.082 52.9493 113.641 53.3314 114.259 53.7437C115.505 54.5939 116.658 55.5746 117.7 56.6696C119.94 59.084 121.622 61.9684 122.626 65.1158C123.769 68.7234 124.139 72.5343 123.713 76.2969C123.219 80.5424 121.886 84.645 119.794 88.3629C118.484 90.6502 116.466 92.4411 114.05 93.4607C113.493 93.684 112.919 93.8622 112.334 93.9936C111.784 94.1161 111.223 94.1802 110.659 94.1847C109.623 94.2174 108.594 93.9894 107.667 93.5211C106.893 93.1073 106.243 92.4915 105.785 91.7381C105.327 90.9846 105.078 90.1211 105.064 89.2376C105.01 87.306 105.585 85.4096 106.7 83.8381C108.094 81.7147 109.085 79.3485 109.622 76.86C110.121 74.5458 110.176 72.1563 109.781 69.8215C109.692 69.2685 109.552 68.7054 109.412 68.1725C109.343 67.9111 109.263 67.6497 109.183 67.3882C109.103 67.1268 108.994 66.8553 108.894 66.6039C108.708 66.0967 108.495 65.6 108.256 65.1158C108.006 64.6332 107.747 64.1706 107.478 63.7182C106.378 61.9584 104.985 60.4037 103.359 59.123C102.25 58.3277 101.386 57.2335 100.866 55.9658C100.693 55.4913 100.672 54.974 100.806 54.4868C100.94 53.9997 101.223 53.5675 101.614 53.251C102.043 52.8404 102.535 52.501 103.07 52.2455C103.675 51.941 104.31 51.7017 104.965 51.5315Z" fill="#7DB59A"/>
<path d="M93.4063 70.9675C94.7715 72.2424 95.6826 73.9349 95.9991 75.7838C96.099 76.5004 96.1589 77.2222 96.1786 77.9456C96.2185 78.6791 96.2185 79.4142 96.1786 80.1477C96.1188 80.8817 96.0291 81.6257 95.8994 82.3698C95.7659 83.1234 95.5894 83.8688 95.3709 84.602C94.4259 87.7686 92.7903 90.6819 90.584 93.1286C88.0552 95.9181 84.9736 98.1413 81.5388 99.6542C77.6422 101.378 73.4376 102.281 69.1827 102.309C66.5489 102.316 63.9865 101.446 61.8926 99.8352C60.9959 99.198 60.2447 98.375 59.6892 97.4212C59.1336 96.4674 58.7866 95.405 58.6715 94.305C58.6432 93.4221 58.8504 92.5478 59.2714 91.7732C59.6923 90.9986 60.3117 90.352 61.065 89.9009C61.8343 89.4202 62.6817 89.0798 63.5681 88.8954C64.5491 88.6736 65.5573 88.5991 66.5599 88.6742C69.0821 88.8453 71.6135 88.5314 74.0194 87.7492C75.1541 87.3796 76.2524 86.9049 77.3004 86.3314C77.819 86.0298 78.2977 85.7181 78.7863 85.3963C79.2565 85.0866 79.7093 84.7509 80.1427 84.3908C80.9907 83.6766 81.7688 82.882 82.4662 82.0179C82.8053 81.5956 83.1244 81.1431 83.4635 80.7007C83.8026 80.2582 84.032 79.8158 84.2813 79.3332C85.244 77.4935 85.885 75.5002 86.1761 73.4409C86.2765 72.6789 86.4708 71.9324 86.7545 71.2188C86.8741 70.9179 87.0141 70.6257 87.1734 70.3441C87.2432 70.2234 87.3229 70.1027 87.4027 69.9921L87.652 69.6703C87.978 69.2899 88.4125 69.02 88.8961 68.8977C89.3798 68.7753 89.8891 68.8064 90.3547 68.9866C90.6262 69.0659 90.8899 69.1702 91.1425 69.2983C91.4187 69.4298 91.6853 69.5811 91.9403 69.7508C92.4672 70.107 92.9583 70.5145 93.4063 70.9675Z" fill="#92E3A9"/>
<path d="M70.9578 70.5956C70.5353 72.422 69.5341 74.0598 68.1057 75.2611C65.7665 77.0831 63.0714 78.3854 60.1974 79.082C57.005 79.8298 53.6881 79.8573 50.4839 79.1624C46.8167 78.3562 43.3602 76.7764 40.3418 74.5271C36.9155 71.9749 34.0414 68.7452 31.8949 65.0352C30.5674 62.7411 30.0374 60.0659 30.3891 57.4337C30.3891 57.132 30.4788 56.8304 30.5386 56.5388C30.5985 56.2472 30.6982 55.9556 30.7879 55.674C30.9663 55.1396 31.1899 54.6215 31.4561 54.1256C31.9548 53.2213 32.6631 52.4519 33.5205 51.8833C34.2654 51.4166 35.1206 51.1594 35.9973 51.1381C36.8741 51.1169 37.7406 51.3325 38.5068 51.7627C39.3122 52.1761 40.0355 52.7351 40.6409 53.4117C40.9783 53.7634 41.2853 54.1435 41.5585 54.5479C41.8351 54.9759 42.0881 55.419 42.3164 55.8752C43.4261 58.1561 44.9557 60.2034 46.824 61.9081C48.5708 63.4989 50.6013 64.7409 52.8076 65.5682C53.8409 65.9724 54.9092 66.2787 55.9988 66.4831C57.0536 66.6548 58.1224 66.7222 59.1901 66.6842C60.2268 66.646 61.258 66.5147 62.2716 66.2921C63.2687 66.0678 64.2459 65.7618 65.1936 65.3771C65.9008 65.0852 66.6411 64.8826 67.3976 64.7738C67.7279 64.7275 68.0614 64.7074 68.3948 64.7134C68.6697 64.7165 68.9436 64.7468 69.2126 64.804C69.7099 64.8915 70.1682 65.1316 70.5252 65.4915C70.8821 65.8514 71.1203 66.3136 71.2071 66.815C71.4238 68.0772 71.3383 69.3734 70.9578 70.5956Z" fill="#7DB59A"/>
<path d="M60.0576 50.7774C58.2794 51.3355 56.3676 51.2824 54.6225 50.6265C53.9643 50.3551 53.3161 50.0434 52.628 49.7015C51.9873 49.3555 51.3648 48.9762 50.7631 48.5653C49.5171 47.7151 48.3638 46.7343 47.3225 45.6393C45.0844 43.2273 43.4022 40.3466 42.396 37.2032C41.2556 33.5917 40.8818 29.7787 41.299 26.012C41.7953 21.767 43.1278 17.6647 45.2183 13.9461C46.5324 11.6561 48.5532 9.8623 50.9725 8.83814C51.528 8.61351 52.1019 8.43859 52.6878 8.31532C53.2336 8.18469 53.7923 8.11721 54.3532 8.11421C55.3904 8.08542 56.4185 8.3169 57.345 8.78787C58.1214 9.19913 58.7731 9.8143 59.2313 10.5683C59.6895 11.3223 59.9371 12.1871 59.9479 13.0713C59.9956 15.002 59.4218 16.8964 58.3124 18.4708C56.9084 20.5854 55.9168 22.9502 55.3904 25.4389C54.8927 27.7531 54.8351 30.1415 55.2208 32.4774C55.3206 33.0404 55.4602 33.5935 55.5998 34.1264C55.6696 34.3979 55.7494 34.6593 55.8292 34.9207C55.909 35.1821 56.0087 35.4436 56.1084 35.695C56.3079 36.2078 56.5173 36.7004 56.7567 37.1831C56.996 37.6657 57.2652 38.1383 57.5345 38.5807C58.6311 40.3429 60.0251 41.898 61.6532 43.1758C62.7631 43.9743 63.6272 45.072 64.1464 46.3431C64.3184 46.8186 64.3377 47.3366 64.2017 47.8238C64.0657 48.311 63.7812 48.7427 63.3884 49.058C62.9581 49.463 62.4709 49.8018 61.9425 50.0635C61.3411 50.3682 60.7092 50.6075 60.0576 50.7774Z" fill="#92E3A9"/>
<path d="M71.606 31.3514C70.2467 30.0718 69.3367 28.3815 69.0131 26.5351C68.9134 25.8111 68.8635 25.1072 68.8336 24.3732C68.8037 23.6392 68.8336 22.8951 68.8336 22.1611C68.8336 21.4271 68.9832 20.6931 69.1129 19.939C69.2453 19.1884 69.4218 18.4464 69.6414 17.7168C70.5885 14.5482 72.2237 11.632 74.4283 9.18018C76.9514 6.3886 80.0301 4.165 83.4635 2.65452C87.3636 0.93115 91.5714 0.0278918 95.8296 0C98.4586 0.00359132 101.015 0.872077 103.11 2.47354C104.008 3.10932 104.76 3.93198 105.316 4.88602C105.871 5.84007 106.218 6.90328 106.331 8.00377C106.362 8.8873 106.157 9.76301 105.738 10.5395C105.319 11.316 104.7 11.9647 103.947 12.4178C103.172 12.8868 102.327 13.2264 101.444 13.4233C100.463 13.6406 99.4546 13.7118 98.4524 13.6345C95.9336 13.4679 93.4062 13.7817 91.0028 14.5596C89.8637 14.9301 88.7619 15.4082 87.7118 15.9874C87.2032 16.279 86.7146 16.5907 86.2359 16.9124C85.7658 17.2221 85.313 17.5578 84.8796 17.9179C84.0291 18.6294 83.2507 19.4243 82.556 20.2909C82.2169 20.7132 81.8978 21.1657 81.5587 21.6081C81.2614 22.0519 80.9884 22.5117 80.741 22.9856C79.7719 24.8226 79.1305 26.817 78.8461 28.8778C78.7432 29.6394 78.549 30.3856 78.2678 31.1C78.1502 31.3986 78.0101 31.6876 77.8489 31.9647C77.7772 32.0874 77.6973 32.2051 77.6095 32.3167C77.532 32.4282 77.4488 32.5356 77.3602 32.6384C77.0371 33.0198 76.6049 33.2911 76.1229 33.4153C75.6409 33.5395 75.1326 33.5105 74.6676 33.3322C74.3958 33.2493 74.1321 33.1416 73.8798 33.0104C73.6056 32.8785 73.3393 32.7308 73.082 32.568C72.5559 32.2064 72.0621 31.7993 71.606 31.3514Z" fill="#7DB59A"/>
<path d="M94.0546 31.7233C94.4744 29.8958 95.4762 28.2571 96.9069 27.0578C99.2595 25.2295 101.973 23.9301 104.865 23.247C108.056 22.4905 111.374 22.4596 114.578 23.1565C118.248 23.9553 121.707 25.5282 124.731 27.7717C128.155 30.3303 131.028 33.5629 133.177 37.2737C134.505 39.5641 135.035 42.2361 134.683 44.8651C134.646 45.1695 134.593 45.4716 134.524 45.7701C134.454 46.0617 134.374 46.3533 134.284 46.6248C134.105 47.1637 133.878 47.6853 133.606 48.1833C133.111 49.0844 132.406 49.8506 131.552 50.4155C130.808 50.8837 129.953 51.1428 129.076 51.1658C128.2 51.1887 127.333 50.9748 126.566 50.5462C125.762 50.1256 125.039 49.5638 124.431 48.8871C124.096 48.5298 123.79 48.1465 123.514 47.7408C123.234 47.313 122.978 46.8699 122.746 46.4136C121.641 44.1326 120.114 42.0851 118.248 40.3806C116.504 38.7893 114.472 37.5502 112.265 36.7306C110.215 35.9823 108.041 35.6409 105.862 35.7252C104.826 35.7634 103.794 35.8947 102.781 36.1173C101.784 36.3383 100.807 36.6409 99.8587 37.0223C99.1481 37.3143 98.4046 37.5169 97.6448 37.6256C97.3142 37.6703 96.9811 37.6939 96.6476 37.6959C96.3697 37.6873 96.093 37.6571 95.8198 37.6055C95.3214 37.5207 94.8615 37.2815 94.5041 36.9211C94.1467 36.5607 93.9094 36.097 93.8253 35.5945C93.5875 34.3046 93.6662 32.9755 94.0546 31.7233Z" fill="#92E3A9"/>
</svg>
