<svg width="73" height="72" viewBox="0 0 73 72" fill="none" xmlns="http://www.w3.org/2000/svg">
<path d="M46.3439 22.7523C47.1296 22.5102 47.9723 22.5336 48.7436 22.8189C49.0342 22.9388 49.3204 23.0764 49.6242 23.2274C49.928 23.3783 50.1746 23.547 50.4476 23.729C50.9977 24.1044 51.5069 24.5374 51.9667 25.0209C52.9558 26.0869 53.6986 27.3604 54.1418 28.7501C54.6463 30.3429 54.8098 32.0255 54.6218 33.6868C54.4035 35.5612 53.8151 37.3726 52.8913 39.0141C52.313 40.024 51.4221 40.8148 50.3551 41.2649C50.1093 41.3635 49.856 41.4422 49.5978 41.5002C49.3548 41.5543 49.1069 41.5826 48.8581 41.5846C48.4005 41.599 47.9465 41.4983 47.5371 41.2916C47.1952 41.1089 46.9083 40.837 46.7061 40.5043C46.504 40.1717 46.3941 39.7904 46.3879 39.4004C46.364 38.5475 46.6176 37.7102 47.11 37.0164C47.7257 36.0788 48.1631 35.0341 48.4002 33.9354C48.6207 32.9136 48.6446 31.8586 48.4706 30.8277C48.431 30.5836 48.3693 30.335 48.3077 30.0997C48.2769 29.9842 48.2416 29.8688 48.2064 29.7534C48.1712 29.638 48.1227 29.5181 48.0787 29.4071C47.9965 29.1832 47.9025 28.9638 47.7969 28.7501C47.6868 28.537 47.5724 28.3328 47.4535 28.133C46.9679 27.356 46.3527 26.6696 45.635 26.1041C45.1454 25.753 44.7639 25.2699 44.5342 24.7101C44.4578 24.5006 44.4485 24.2722 44.5078 24.0572C44.5671 23.8421 44.6918 23.6512 44.8644 23.5115C45.0541 23.3302 45.2711 23.1804 45.5073 23.0676C45.7744 22.9331 46.0548 22.8275 46.3439 22.7523Z" fill="#F1F1F1"/>
<path d="M41.2406 31.3335C41.8433 31.8964 42.2456 32.6437 42.3854 33.46C42.4294 33.7764 42.4559 34.0951 42.4646 34.4145C42.4822 34.7383 42.4822 35.0629 42.4646 35.3867C42.4382 35.7108 42.3986 36.0393 42.3413 36.3678C42.2824 36.7006 42.2044 37.0297 42.108 37.3534C41.6907 38.7515 40.9686 40.0378 39.9945 41.1181C38.8779 42.3497 37.5174 43.3313 36.0008 43.9993C34.2804 44.7602 32.424 45.159 30.5453 45.1713C29.3825 45.1743 28.2511 44.7904 27.3267 44.0792C26.9307 43.7979 26.599 43.4345 26.3538 43.0134C26.1085 42.5922 25.9553 42.1231 25.9044 41.6375C25.892 41.2477 25.9834 40.8617 26.1693 40.5197C26.3552 40.1776 26.6286 39.8922 26.9612 39.693C27.3009 39.4807 27.675 39.3305 28.0664 39.2491C28.4995 39.1511 28.9447 39.1182 29.3873 39.1514C30.5009 39.2269 31.6186 39.0883 32.6809 38.743C33.1819 38.5798 33.6668 38.3702 34.1295 38.117C34.3585 37.9838 34.5698 37.8462 34.7856 37.7041C34.9931 37.5674 35.1931 37.4192 35.3844 37.2602C35.7588 36.9448 36.1024 36.594 36.4103 36.2125C36.56 36.026 36.7009 35.8262 36.8506 35.6309C37.0003 35.4356 37.1016 35.2402 37.2117 35.0271C37.6368 34.2149 37.9198 33.3348 38.0483 32.4256C38.0926 32.0891 38.1784 31.7595 38.3037 31.4445C38.3565 31.3116 38.4183 31.1826 38.4886 31.0583C38.5194 31.005 38.5546 30.9517 38.5899 30.9029L38.6999 30.7608C38.8439 30.5928 39.0357 30.4737 39.2492 30.4196C39.4628 30.3656 39.6877 30.3793 39.8932 30.4589C40.0131 30.4939 40.1295 30.54 40.241 30.5965C40.363 30.6546 40.4807 30.7214 40.5933 30.7963C40.826 30.9536 41.0428 31.1335 41.2406 31.3335Z" fill="white"/>
<path d="M31.3298 31.1691C31.1432 31.9755 30.7012 32.6987 30.0705 33.229C29.0377 34.0335 27.8477 34.6085 26.5788 34.9161C25.1693 35.2462 23.7048 35.2583 22.2901 34.9516C20.671 34.5956 19.1449 33.8981 17.8122 32.905C16.2994 31.7781 15.0304 30.3521 14.0827 28.7141C13.4966 27.7012 13.2626 26.52 13.4178 25.3579C13.4178 25.2247 13.4574 25.0915 13.4839 24.9627C13.5103 24.834 13.5543 24.7053 13.5939 24.581C13.6727 24.345 13.7714 24.1163 13.889 23.8973C14.1092 23.498 14.4219 23.1583 14.8004 22.9073C15.1293 22.7012 15.5069 22.5876 15.894 22.5783C16.2811 22.5689 16.6637 22.6641 17.002 22.854C17.3576 23.0366 17.677 23.2833 17.9442 23.5821C18.0932 23.7374 18.2287 23.9052 18.3493 24.0837C18.4715 24.2727 18.5832 24.4684 18.684 24.6698C19.1739 25.6768 19.8493 26.5808 20.6742 27.3334C21.4455 28.0358 22.342 28.5842 23.3161 28.9494C23.7723 29.1279 24.244 29.2631 24.7251 29.3534C25.1908 29.4292 25.6627 29.4589 26.1341 29.4422C26.5918 29.4253 27.0471 29.3673 27.4946 29.269C27.9349 29.17 28.3663 29.0349 28.7847 28.8651C29.097 28.7362 29.4238 28.6467 29.7579 28.5987C29.9037 28.5783 30.0509 28.5694 30.1982 28.572C30.3195 28.5734 30.4405 28.5868 30.5592 28.612C30.7788 28.6507 30.9811 28.7567 31.1387 28.9156C31.2963 29.0745 31.4015 29.2785 31.4399 29.4999C31.5355 30.0572 31.4978 30.6295 31.3298 31.1691Z" fill="#F1F1F1"/>
<path d="M26.517 22.4193C25.7318 22.6657 24.8878 22.6422 24.1173 22.3527C23.8267 22.2328 23.5405 22.0952 23.2366 21.9442C22.9538 21.7915 22.6789 21.624 22.4133 21.4426C21.8631 21.0672 21.3539 20.6342 20.8942 20.1507C19.906 19.0857 19.1633 17.8139 18.719 16.426C18.2155 14.8314 18.0505 13.1479 18.2347 11.4848C18.4538 9.61057 19.0421 7.79933 19.9651 6.15749C20.5453 5.14643 21.4375 4.35442 22.5057 3.90223C22.751 3.80305 23.0044 3.72582 23.2631 3.67139C23.504 3.61372 23.7507 3.58392 23.9984 3.5826C24.4563 3.56989 24.9102 3.67209 25.3193 3.88004C25.6621 4.06161 25.9499 4.33322 26.1522 4.66613C26.3545 4.99903 26.4638 5.38087 26.4686 5.77125C26.4896 6.62371 26.2363 7.4601 25.7464 8.15525C25.1266 9.08888 24.6887 10.133 24.4563 11.2318C24.2366 12.2536 24.2112 13.3081 24.3814 14.3394C24.4255 14.588 24.4871 14.8322 24.5488 15.0675C24.5796 15.1874 24.6148 15.3028 24.6501 15.4182C24.6853 15.5336 24.7293 15.6491 24.7733 15.7601C24.8614 15.9865 24.9539 16.204 25.0595 16.4171C25.1652 16.6302 25.2841 16.8389 25.403 17.0342C25.8872 17.8122 26.5026 18.4988 27.2215 19.063C27.7115 19.4155 28.093 19.9002 28.3223 20.4614C28.3982 20.6714 28.4067 20.9001 28.3467 21.1152C28.2866 21.3303 28.161 21.5209 27.9876 21.6601C27.7976 21.839 27.5825 21.9885 27.3492 22.1041C27.0837 22.2386 26.8047 22.3443 26.517 22.4193Z" fill="white"/>
<path d="M31.6152 13.8423C31.015 13.2773 30.6132 12.531 30.4704 11.7158C30.4263 11.3961 30.4043 11.0854 30.3911 10.7613C30.3779 10.4372 30.3911 10.1087 30.3911 9.78458C30.3911 9.4605 30.4572 9.13644 30.5144 8.80348C30.5729 8.47207 30.6508 8.14445 30.7478 7.82234C31.1659 6.42331 31.8879 5.13577 32.8613 4.05324C33.9753 2.8207 35.3346 1.83893 36.8505 1.17203C38.5725 0.411122 40.4303 0.0123148 42.3104 0C43.4712 0.00158564 44.5997 0.38504 45.5247 1.09212C45.9212 1.37283 46.2534 1.73605 46.4987 2.15728C46.7441 2.57851 46.8969 3.04794 46.9469 3.53383C46.9606 3.92392 46.8702 4.31057 46.6851 4.6534C46.5 4.99622 46.227 5.28264 45.8946 5.48273C45.5523 5.6898 45.1791 5.83972 44.7894 5.92668C44.3559 6.02262 43.9109 6.05404 43.4684 6.01992C42.3563 5.94636 41.2404 6.08492 40.1793 6.42834C39.6763 6.59193 39.1899 6.80302 38.7263 7.05877C38.5017 7.18751 38.2859 7.32513 38.0746 7.46719C37.867 7.60393 37.6671 7.75214 37.4758 7.91114C37.1002 8.22528 36.7566 8.57623 36.4498 8.95885C36.3001 9.1453 36.1592 9.34508 36.0095 9.54042C35.8782 9.73635 35.7577 9.93939 35.6485 10.1486C35.2206 10.9597 34.9374 11.8402 34.8119 12.7501C34.7664 13.0864 34.6807 13.4159 34.5565 13.7313C34.5046 13.8631 34.4427 13.9907 34.3715 14.1131C34.3399 14.1673 34.3046 14.2192 34.2659 14.2685C34.2316 14.3177 34.1949 14.3651 34.1558 14.4105C34.0131 14.5789 33.8223 14.6987 33.6095 14.7535C33.3967 14.8084 33.1723 14.7956 32.9669 14.7169C32.847 14.6803 32.7305 14.6327 32.6191 14.5748C32.4981 14.5165 32.3805 14.4513 32.2669 14.3794C32.0346 14.2198 31.8166 14.04 31.6152 13.8423Z" fill="#F1F1F1"/>
<path d="M41.5268 14.0064C41.7121 13.1995 42.1545 12.476 42.7861 11.9465C43.8248 11.1393 45.0229 10.5656 46.2998 10.264C47.7087 9.92997 49.1737 9.91631 50.5885 10.224C52.2085 10.5767 53.7361 11.2712 55.0708 12.2617C56.5826 13.3914 57.8514 14.8186 58.8003 16.457C59.3864 17.4683 59.6205 18.6481 59.4652 19.8088C59.4489 19.9432 59.4253 20.0766 59.3947 20.2084C59.3639 20.3371 59.3287 20.4659 59.289 20.5857C59.2099 20.8237 59.1097 21.054 58.9896 21.2738C58.7711 21.6717 58.4598 22.01 58.0826 22.2594C57.7541 22.4662 57.3767 22.5805 56.9896 22.5907C56.6025 22.6008 56.2197 22.5064 55.881 22.3171C55.5262 22.1314 55.2071 21.8834 54.9387 21.5846C54.7908 21.4269 54.6554 21.2576 54.5337 21.0785C54.4101 20.8896 54.2969 20.694 54.1946 20.4925C53.7066 19.4854 53.0326 18.5814 52.2088 17.8288C51.4385 17.1262 50.5417 16.5791 49.5669 16.2173C48.6619 15.8869 47.702 15.7361 46.7401 15.7733C46.2824 15.7902 45.8271 15.8482 45.3795 15.9465C44.9394 16.044 44.508 16.1777 44.0894 16.346C43.7757 16.475 43.4474 16.5644 43.1119 16.6124C42.966 16.6322 42.8189 16.6426 42.6716 16.6435C42.549 16.6397 42.4268 16.6263 42.3062 16.6035C42.0861 16.5661 41.8831 16.4605 41.7252 16.3014C41.5674 16.1422 41.4627 15.9375 41.4255 15.7156C41.3205 15.1461 41.3553 14.5593 41.5268 14.0064Z" fill="white"/>
</svg>
